<svg xmlns="http://www.w3.org/2000/svg" width="192" height="46" viewBox="0 0 192 46">
  <path fill="#E5442F" d="M2.83 1.39L20.58.38l.74 19.7L0 19.74.47 6.72z"/>
  <path fill="#FFF" d="M89.31 14.9l1.56 5.2h4.59l-7-19.71h-5.71l-6.99 19.7h4.59l1.53-5.19h7.43zm-.9-2.76H82.8l1.39-4.7c.43-1.45.88-2.96 1.3-4.7h.22c.43 1.75.88 3.2 1.33 4.7l1.38 4.7zM69.64 13.6c-.36 2.12-1.6 4.1-3.9 4.1-2.4 0-4.51-1.89-4.51-7.43 0-5.43 1.98-7.47 4.56-7.47 2.1 0 3.14 1.36 3.68 3.72l4.24-.37C72.85 1.9 69.7 0 65.8 0c-2.47 0-4.57.8-6.16 2.29-1.76 1.7-2.75 4.35-2.75 7.84 0 4.03 1.09 6.6 2.78 8.19 1.58 1.5 3.85 2.16 6.1 2.16a8.19 8.19 0 0 0 8.16-6.39l-4.3-.49zm-13.98 3.7H47.4V.39h-4.22v19.7h12.48v-2.8zM36.74 8.57v2.77h-6.98v5.99h9.66v2.76H25.54V.4h13.62v2.77h-9.4v5.4h6.98z"/>
  <path fill="#929497" d="M46.2 26.7c-.3.6-.64 1.1-1.03 1.48l-.4 1.2c-.2.46-.4.83-.66 1.13-.8 2.24-1.92 5.6-3.38 10.08l-1.02 2.43a.65.65 0 0 0-.48.2c-.2.24-.43.32-.68.28-.44-.39-1.06-1.41-1.88-3.08a75.5 75.5 0 0 0-.48-1.6 20.8 20.8 0 0 1-.82-4.34c-.09-1-.18-1.84-.27-2.52-.16.07-.29.24-.38.51a2.3 2.3 0 0 1-.3.61 89.15 89.15 0 0 1-3.76 8.62 17.6 17.6 0 0 1-1.44 2.49c-.09.02-.27.09-.54.2a1.17 1.17 0 0 1-.82.1 7.47 7.47 0 0 1-1.33-3.79c0-.22 0-.44.03-.64a58.8 58.8 0 0 1-.2-5.2 16.55 16.55 0 0 0-.72-5.05c-.1-.07-.1-.34-.04-.82.12-.02.32-.12.62-.27.27-.16.51-.16.72 0 .11.15.2.46.25.9.06.44.15.74.26.89.11.15.17.32.17.53l-.03.4-.04.38c0 .18.05.33.14.45-.06.31-.06.74 0 1.26.07.64.1 1.06.1 1.26 0 .28-.02.53-.07.75.07.42.08.96.04 1.64-.07.85-.1 1.4-.07 1.68.07.23.18.89.34 1.98.14.84.32 1.48.55 1.91 1.57-2.76 3.08-5.65 4.54-8.7.16-.5.45-1.2.89-2.1.43-.9.74-1.63.92-2.18.23-.06.44-.1.65-.1.57 0 .87.26.92.79l.27 2.45c.12.98.16 1.83.14 2.53l.75 3.04c.3 1.23.7 2.2 1.2 2.9.3-.57.6-1.3.92-2.18l.82-2.22c1.82-4.65 3.63-8.67 5.43-12.09.1-.02.3-.02.54 0h.45a52.4 52.4 0 0 1-.83 1.82m5.16 16.89l-.1.07c-.12.07-.18.2-.18.37-1.91 1.32-3.41 1.98-4.5 1.98a3.6 3.6 0 0 1-1.78-.48c-1-.7-1.5-1.89-1.5-3.55.98-3.9 3-6.89 6.04-8.98l.79-.1c.43-.05.74.06.93.34.2.27.28.57.26.88-.07.32-.13.63-.17.93-.48 1.36-1.9 2.89-4.27 4.57-.13.1-.52.19-1.16.28-.36.04-.54.25-.54.61a3.3 3.3 0 0 0-.48 1.81c0 .46.06.96.2 1.5.37.62.98.95 1.85 1l.13-.07c.37.02.87-.08 1.5-.31.67-.36 1.71-.86 3.15-1.5.06.25 0 .47-.17.65m-1.44-8.84a2.29 2.29 0 0 0-.24-.2c-1.25.7-2.38 1.95-3.38 3.75.12 0 .24-.03.38-.1l1.77-1.57a6.17 6.17 0 0 0 1.47-1.88m30.59 4.92c-.52 2.5-.76 4.2-.71 5.08h.03c.12 0 .28.05.48.14-.04.34-.19.56-.43.65l-.73.28c-.61-.48-.92-1.19-.92-2.12 0-.25.03-.65.08-1.18.06-.54.09-.93.09-1.18.16-.8.47-1.83.92-3.1a40.5 40.5 0 0 0 1.02-3.08h-.06c-.2.16-.37.23-.48.2a74.2 74.2 0 0 0-4.37 3.38 40.94 40.94 0 0 0-4.06 3.7c-.6.65-.97 1.04-1.13 1.15a2 2 0 0 1-1.54.45c-.14-.37-.2-.77-.2-1.2a11.77 11.77 0 0 1 .79-3.72 5.8 5.8 0 0 0 .37-1.81c0-.19-.01-.36-.04-.51a6.3 6.3 0 0 0-1.53 1.46c-.69.82-1.19 1.36-1.5 1.6a30.35 30.35 0 0 1-3.97 4.44.62.62 0 0 0-.22-.2.47.47 0 0 0-.19-.03l-.3.03a.98.98 0 0 1-.48-.13c.09-.82.4-2.04.95-3.66.57-1.55.89-2.75.96-3.62-.1.07-.25.15-.48.24-.55.37-1.37.97-2.46 1.81-.09 0-.25.03-.48.09-.22.06-.4.08-.5.08-.28 0-.48-.17-.62-.5a.64.64 0 0 1 .39-.52l.63-.24c.1-.02.15-.1.17-.24.32-.07.66-.26 1.02-.58a4 4 0 0 1 .86-.61c.36-.32.73-.63 1.1-.93.38-.3.83-.34 1.35-.13.27.36.41.83.41 1.4 0 .68-.2 1.4-.57 2.15 0 .25-.07.65-.2 1.21s-.2.98-.18 1.28l3.08-3.31a17.4 17.4 0 0 1 3.45-2.87c.6.2.92.68.92 1.43 0 .19-.03.48-.07.9-.05.4-.06.7-.03.88-.26.8-.6 2.02-1.03 3.65.02.03.06.03.1 0l5.3-4.53c2.09-1.76 4-3.08 5.7-3.96.39 0 .66.19.82.57.06.83-.1 1.8-.52 2.9a25.19 25.19 0 0 0-.98 2.8m10.27 4.48c-.14.04-.34.14-.62.3-.3.03-.56-.03-.8-.17a55.2 55.2 0 0 1-.7-.4 5.15 5.15 0 0 0-.3-1.06 2.96 2.96 0 0 1-.24-1.03c-.19.23-.31.43-.38.58a26.35 26.35 0 0 1-1.57 1.88c-.69.62-1.42.87-2.22.75-.64-.52-.96-1.27-.96-2.25 0-.8.29-2 .86-3.59 1.04-2.87 2.6-5.03 4.64-6.49h.55a.8.8 0 0 1 .63.26c.15.17.22.41.22.73 0 .2-.08.64-.24 1.3-.04.07-.15.29-.3.65-.12.27-.28.47-.48.58-.07.18-.36.35-.86.52.12-.64.31-1.12.59-1.44.02-.09.07-.28.17-.58a.66.66 0 0 0 0-.48l.16-.2v-.07c-.13-.02-.38.18-.75.61l-.34.35c-2.46 2.89-3.7 5.48-3.75 7.78.09.69.3 1.07.61 1.16.68-.18 1.39-.82 2.12-1.91 1-.91 1.72-2 2.15-3.25.09-.29.46-1.83 1.12-4.6.1-.23.36-.41.79-.55.23.23.34.49.34.79 0 .15-.05.4-.15.71-.1.32-.17.55-.2.69-.3.88-.62 1.77-.91 2.66a8.62 8.62 0 0 0-.52 2.66c0 .48.06.94.18 1.37s.28.75.5.96c.4-.12.71-.15.96-.1.12.38.02.67-.3.88m5.86-5.46a.41.41 0 0 0-.17.03l.03-.07c.1-.1.24-.13.44-.13.05.31 0 .52-.17.6l-.06.04c-.03.8.35 1.62 1.12 2.46.3.2.6.42.89.63.3.22.61.37.96.46.16.37.63.74 1.43 1.13.16 0 .26.01.3.04l.11.03h.2c.03.27-.02.44-.15.51-.12.07-.25.14-.39.2-2.57-.6-4.39-1.92-5.47-3.92-.02-.16-.08-.4-.17-.72-.18.69-.46 1.7-.85 3.04a.75.75 0 0 0-.13.48v.88c0 .55-.34.84-1.03.86a1.9 1.9 0 0 1-.3-1.06c0-.2.07-.7.23-1.47.39-1.75 1.1-4.56 2.15-8.43 1-3.66 1.7-6.5 2.12-8.53a.97.97 0 0 1 .58-.17c.39 0 .6.17.65.51 0 .3-.17.91-.51 1.84.02.23-.05.52-.2.87s-.25.63-.25.82a3 3 0 0 1-.19.86c-.12.37-.18.67-.18.9 0 .11 0 .24.03.37a2.5 2.5 0 0 0-.36.86c-.1.39-.19.66-.26.82-.04.36-.18.9-.42 1.62a9.19 9.19 0 0 0-.43 1.65c.48-.3 1.1-.82 1.88-1.57.2.05.34 0 .41-.13.14-.32.35-.41.65-.28a19.2 19.2 0 0 0 1.6-.37c.18 0 .36.02.55.07.3.3.36.59.2.88a7 7 0 0 0-4.64 2.8l-.04.41-.17.14h.04l-.03.04zm14.39 4.91l-.1.07c-.12.07-.18.2-.18.37-1.91 1.32-3.41 1.98-4.5 1.98-.62 0-1.21-.16-1.78-.48-1-.7-1.5-1.89-1.5-3.55.98-3.9 2.99-6.89 6.04-8.98l.79-.1c.43-.05.74.06.93.34.2.27.28.57.26.88-.07.32-.12.63-.17.93-.48 1.36-1.9 2.89-4.27 4.57-.13.1-.52.19-1.16.28-.36.04-.54.25-.54.61a3.3 3.3 0 0 0-.48 1.81c0 .46.07.96.2 1.5.37.62.98.95 1.85 1l.13-.07c.37.02.87-.08 1.5-.31.66-.36 1.71-.86 3.15-1.5.07.25 0 .47-.17.65m-1.44-8.84a2 2 0 0 0-.23-.2c-1.26.7-2.38 1.95-3.39 3.75.12 0 .24-.03.38-.1l1.78-1.57a6.14 6.14 0 0 0 1.46-1.88m14.51 8.05c-.2.34-.55.83-1.02 1.47l-.96.54a1.7 1.7 0 0 1-1 .24c-.4-.02-.86-.36-1.36-1.02-.04-.41-.06-.82-.06-1.23 0-1.8.46-4.26 1.4-7.4.18-.53.48-1.28.92-2.26a.68.68 0 0 1 .54-.23c.23 0 .45.07.65.23s.3.35.3.55c0 .11-.03.22-.1.3-.56.94-1.06 2.03-1.5 3.28l-.4 2.19a20.32 20.32 0 0 0-.45 3.86c.05.14.16.32.34.55.1.02.23-.06.4-.23.16-.17.3-.26.39-.29.23-.15.61-.52 1.16-1.1.43-.47.84-.8 1.23-.98l.78-.92c-.4 1.36-.83 2.18-1.26 2.45m.2-13.1l-.1.06a.85.85 0 0 0-.14.34c-1.09.1-1.67-.17-1.74-.78 0-.36.13-.6.38-.68.11-.03.39-.03.82 0 .13 0 .28-.04.44-.1.02.06.12.14.29.22.17.08.27.2.3.39.01.18-.06.36-.25.54m8.13 4.4c.48.1.96.18 1.44.25.52.13.95.36 1.3.68v.65c-.37.02-1.02-.02-1.95-.14a3.37 3.37 0 0 0-1.47.1c-1.57 2.78-2.35 5.13-2.35 7.04 0 .27 0 .53.03.78.18.39.7.48 1.57.28.3-.03.7-.2 1.23-.52a3.07 3.07 0 0 1 1.6-.48c-.45 1.21-1.53 2-3.24 2.4-.89.09-1.54-.1-1.95-.58a4.79 4.79 0 0 1-.58-2.4c0-1.24.38-2.72 1.13-4.43.25-.41.53-1.05.85-1.91-.8 0-1.49.35-2.08 1.05-.34 0-.56-.12-.67-.37-.1-.25-.18-.5-.25-.75.04-.25.33-.51.85-.79.37-.3.83-.49 1.4-.58.5-.04 1-.1 1.5-.17a25.82 25.82 0 0 0 2.43-5.87c.16-.23.33-.34.51-.34.3 0 .57.22.82.68-.11 1.57-.79 3.36-2.02 5.36a.43.43 0 0 0-.1.07m29.22-1.06c-.12.18-.3.5-.55.99-.5.56-1.48 2.08-2.93 4.54-1.12 1.91-2.27 3.26-3.45 4.03-.69.2-1.36.15-2.02-.17l-1.06-1.5c-.02-.27-.14-.87-.37-1.77a6.47 6.47 0 0 1-.24-1.82c-.3.53-.8 1.29-1.5 2.3-.12.38-.36.85-.72 1.4a9.24 9.24 0 0 0-.79 1.32c-.36.5-.99 1.21-1.88 2.12h-.98c-.53 0-.79-.26-.79-.78-.02-1.41.1-3.16.38-5.23.36-2.85.57-4.5.61-4.99.04-.25.22-.37.51-.37.37 0 .62.09.75.27.25.34.38.72.38 1.13 0 .25-.06.64-.19 1.18a5.1 5.1 0 0 0-.17 1.16c.01.24-.08.62-.29 1.14-.14.34-.06.68.24 1.02-.27.05-.41.1-.41.14v.1a13.43 13.43 0 0 0-.27 1.81 4.72 4.72 0 0 0 0 1.47c.36-.23.74-.67 1.14-1.35.4-.67.72-1.12.97-1.34.55-1.14 1.71-3.1 3.49-5.88a1.4 1.4 0 0 1 1.23-.24c.34.16.5.39.5.69 0 .11-.02.3-.08.54a1.6 1.6 0 0 0-.05.58c-.11.19-.19.49-.22.9-.04.43-.1.73-.19.91.07 1.37.11 2.13.14 2.29.16.89.53 1.51 1.12 1.88.2.02.44-.2.68-.68.55-.67 1.66-2.22 3.32-4.65a32.95 32.95 0 0 1 3.55-4.44h.65c-.1.43-.26.86-.51 1.3m5.69 8.13c-.16.06-.31.21-.45.44-.18.34-.3.53-.34.58-.27.32-.76.74-1.47 1.26a3.56 3.56 0 0 1-2.84 1.23c-.32 0-.64-.05-.95-.14-.76-.48-1.18-1.3-1.27-2.49a8.7 8.7 0 0 1 .75-2.08c.34-.63.67-1.28 1-1.94.1-.11.36-.42.75-.92.27-.39.56-.65.88-.78.32-.44.77-.69 1.34-.76.2.07.55-.1 1.06-.5.09-.1.25-.21.48-.35.61 0 1.06.07 1.33.2.64.57.96 1.4.96 2.5 0 .56-.08 1.14-.24 1.73-.18.46-.51 1.13-1 2.02m0-4.48c-.05-.48-.23-.81-.55-1.02l-1.09.38.27.4-.07 1c-.04.38-.18.68-.4.88a.8.8 0 0 1-.31.07c-.25 0-.4-.32-.45-.96a.2.2 0 0 0 0-.1c-.22.07-.49.26-.78.58-.37.37-.63.6-.79.69A21.12 21.12 0 0 0 162 40.7a4.6 4.6 0 0 0-.44 2.29c.14.25.33.4.58.44 2.37-.43 4.08-2.16 5.16-5.19 0-1.23 0-1.74.03-1.54m5.88-.17a44.7 44.7 0 0 1 2.5-2.49c1-.8 1.93-1.2 2.8-1.2.4 0 .8.1 1.16.31.23.37.34.74.34 1.13 0 .2-.14.83-.41 1.88h-.48c-.07-.16-.1-.61-.1-1.37 0-.43-.08-.72-.24-.88a6.63 6.63 0 0 0-3.24 1.84 9.88 9.88 0 0 0-2.16 3.1c-.2.05-.36.22-.47.52-.14.39-.27.64-.38.75a13.4 13.4 0 0 0-1.16 2.56c-.12.13-.25.5-.41 1.1-.12.45-.37.72-.76.81-.09-.16-.18-.22-.27-.17-.32.25-.57.14-.75-.34.39-1.05 1.45-4.14 3.18-9.29-.23-.59-.08-.9.44-.95.75-.07 1.13.11 1.13.54 0 .1-.05.2-.14.33-.09.12-.13.43-.13.9-.19 0-.28.04-.28.1.03-.18.04-.07.04.31-.02.07-.07.17-.14.31 0 .02 0 .06-.02.1 0 .05-.02.08-.05.1m10.46 2.16a.42.42 0 0 0-.17.03l.03-.07c.1-.1.24-.13.45-.13.04.31-.01.52-.17.6l-.07.04c-.02.8.35 1.62 1.13 2.46.3.2.59.42.88.63.3.22.62.37.96.46.16.37.64.74 1.43 1.13.16 0 .27.01.31.04l.1.03h.2c.03.27-.02.44-.14.51l-.4.2c-2.56-.6-4.39-1.92-5.47-3.92-.02-.16-.08-.4-.17-.72-.18.69-.46 1.7-.84 3.04a.76.76 0 0 0-.14.48v.88c0 .55-.34.84-1.03.86-.2-.32-.3-.67-.3-1.06 0-.2.08-.7.24-1.47a194 194 0 0 1 2.15-8.43c1-3.66 1.7-6.5 2.11-8.53a.98.98 0 0 1 .58-.17c.39 0 .6.17.65.51 0 .3-.17.91-.51 1.84.02.23-.05.52-.2.87-.16.36-.24.63-.24.82a3 3 0 0 1-.2.86c-.12.37-.18.67-.18.9l.03.37c-.13.19-.25.47-.35.86-.1.39-.2.66-.26.82-.05.36-.19.9-.43 1.62a9.14 9.14 0 0 0-.42 1.65c.48-.3 1.1-.82 1.87-1.57.2.05.34 0 .41-.13.14-.32.36-.41.65-.28 1.14-.25 1.68-.37 1.6-.37.19 0 .37.02.55.07.3.3.37.59.2.88a7 7 0 0 0-4.63 2.8l-.04.41-.17.14h.03l-.03.04zm8.75 4.84c-.07.67-.42 1.03-1.06 1.1a5.25 5.25 0 0 0-.34-.19c-.12-.06-.18-.16-.18-.32-.2-1.07.04-1.61.72-1.61l.52.14c.18.04.3.18.34.4v.48z"/>
</svg>
